name Walk10.mot
datacolumns 19
datarows 15
range 3.53500000 3.54900000
endheader

                time	   L_ground_force_vx	   L_ground_force_vy	   L_ground_force_vz	   L_ground_force_px	   L_ground_force_py	   L_ground_force_pz	   R_ground_force_vx	   R_ground_force_vy	   R_ground_force_vz	   R_ground_force_px	   R_ground_force_py	   R_ground_force_pz	   L_ground_torque_x	   L_ground_torque_y	   L_ground_torque_z	   R_ground_torque_x	   R_ground_torque_y	   R_ground_torque_z	
          3.53500000	        -20.55264310	        665.50178008	        -41.41865888	          0.43476655	          0.00000000	          0.09582098	          0.00000000	          0.00000000	          0.00000000	          0.00000000	          0.00000000	          0.00000000	          0.00000000	          3.06419533	          0.00000000	          0.00000000	          0.00000000	          0.00000000	
          3.53600000	        -20.26439284	        664.42532276	        -41.41410101	          0.43532029	          0.00000000	          0.09593425	          0.00000000	          0.00000000	          0.00000000	          0.00000000	          0.00000000	          0.00000000	          0.00000000	          3.02749729	          0.00000000	          0.00000000	          0.00000000	          0.00000000	
          3.53700000	        -19.99321933	        663.43634174	        -41.40430088	          0.43588018	          0.00000000	          0.09609308	          0.00000000	          0.00000000	          0.00000000	          0.00000000	          0.00000000	          0.00000000	          0.00000000	          2.99086091	          0.00000000	          0.00000000	          0.00000000	          0.00000000	
          3.53800000	        -19.75770463	        662.50820156	        -41.38707438	          0.43644393	          0.00000000	          0.09626833	          0.00000000	          0.00000000	          0.00000000	          0.00000000	          0.00000000	          0.00000000	          0.00000000	          2.95091852	          0.00000000	          0.00000000	          0.00000000	          0.00000000	
          3.53900000	        -19.56279825	        661.60800597	        -41.36094718	          0.43699957	          0.00000000	          0.09643121	          0.00000000	          0.00000000	          0.00000000	          0.00000000	          0.00000000	          0.00000000	          0.00000000	          2.90605961	          0.00000000	          0.00000000	          0.00000000	          0.00000000	
          3.54000000	        -19.39749743	        660.68540979	        -41.32238121	          0.43754321	          0.00000000	          0.09656069	          0.00000000	          0.00000000	          0.00000000	          0.00000000	          0.00000000	          0.00000000	          0.00000000	          2.85636596	          0.00000000	          0.00000000	          0.00000000	          0.00000000	
          3.54100000	        -19.24551138	        659.68854396	        -41.26612416	          0.43810048	          0.00000000	          0.09664715	          0.00000000	          0.00000000	          0.00000000	          0.00000000	          0.00000000	          0.00000000	          0.00000000	          2.80152056	          0.00000000	          0.00000000	          0.00000000	          0.00000000	
          3.54200000	        -19.09436960	        658.59448469	        -41.19338844	          0.43870534	          0.00000000	          0.09669722	          0.00000000	          0.00000000	          0.00000000	          0.00000000	          0.00000000	          0.00000000	          0.00000000	          2.74162698	          0.00000000	          0.00000000	          0.00000000	          0.00000000	
          3.54300000	        -18.93453240	        657.43022325	        -41.11526728	          0.43936234	          0.00000000	          0.09672608	          0.00000000	          0.00000000	          0.00000000	          0.00000000	          0.00000000	          0.00000000	          0.00000000	          2.68053258	          0.00000000	          0.00000000	          0.00000000	          0.00000000	
          3.54400000	        -18.75900825	        656.26454302	        -41.04127509	          0.44004765	          0.00000000	          0.09674203	          0.00000000	          0.00000000	          0.00000000	          0.00000000	          0.00000000	          0.00000000	          0.00000000	          2.62561109	          0.00000000	          0.00000000	          0.00000000	          0.00000000	
          3.54500000	        -18.56702216	        655.17722091	        -40.96989090	          0.44073109	          0.00000000	          0.09674950	          0.00000000	          0.00000000	          0.00000000	          0.00000000	          0.00000000	          0.00000000	          0.00000000	          2.58417081	          0.00000000	          0.00000000	          0.00000000	          0.00000000	
          3.54600000	        -18.36396085	        654.21356688	        -40.89305806	          0.44138621	          0.00000000	          0.09675563	          0.00000000	          0.00000000	          0.00000000	          0.00000000	          0.00000000	          0.00000000	          0.00000000	          2.55923573	          0.00000000	          0.00000000	          0.00000000	          0.00000000	
          3.54700000	        -18.15910738	        653.34909591	        -40.80628494	          0.44199073	          0.00000000	          0.09676633	          0.00000000	          0.00000000	          0.00000000	          0.00000000	          0.00000000	          0.00000000	          0.00000000	          2.54716693	          0.00000000	          0.00000000	          0.00000000	          0.00000000	
          3.54800000	        -17.96315720	        652.51000281	        -40.71162244	          0.44252831	          0.00000000	          0.09678707	          0.00000000	          0.00000000	          0.00000000	          0.00000000	          0.00000000	          0.00000000	          0.00000000	          2.53995586	          0.00000000	          0.00000000	          0.00000000	          0.00000000	
          3.54900000	        -17.78501169	        651.63365538	        -40.61221951	          0.44300018	          0.00000000	          0.09682624	          0.00000000	          0.00000000	          0.00000000	          0.00000000	          0.00000000	          0.00000000	          0.00000000	          2.52855762	          0.00000000	          0.00000000	          0.00000000	          0.00000000	
